<?xml version="1.0" standalone="no"?>
<!DOCTYPE svg PUBLIC "-//W3C//DTD SVG 20010904//EN"
 "http://www.w3.org/TR/2001/REC-SVG-20010904/DTD/svg10.dtd">
<svg version="1.0" xmlns="http://www.w3.org/2000/svg"
 width="100.000000pt" height="100.000000pt" viewBox="0 0 100.000000 100.000000"
 preserveAspectRatio="xMidYMid meet">
<metadata>
Created by potrace 1.11, written by Peter Selinger 2001-2013
</metadata>
<g transform="translate(0.000000,100.000000) scale(0.100000,-0.100000)"
fill="#000000" stroke="none">
<path d="M320 983 c-25 -9 -63 -36 -90 -63 -25 -26 -61 -55 -80 -65 -93 -47
-131 -159 -96 -279 16 -53 16 -62 2 -97 -25 -62 -21 -110 14 -157 17 -23 35
-42 40 -42 6 0 10 -18 10 -40 0 -23 7 -54 15 -69 14 -28 62 -58 103 -64 12 -2
31 -15 42 -30 43 -54 118 -74 183 -49 29 11 40 12 52 2 22 -18 95 -16 136 4
20 9 46 30 58 46 13 18 31 30 44 30 30 0 83 34 98 62 7 13 13 39 14 59 1 26
12 49 37 79 51 59 57 117 20 186 -7 14 -6 31 4 59 20 56 20 152 0 200 -21 49
-58 89 -98 106 -17 7 -53 35 -81 63 -60 60 -103 76 -184 70 -81 -5 -82 -5
-143 0 -37 4 -69 0 -100 -11z m131 -96 c4 -63 4 -755 1 -769 -5 -22 -34 -31
-73 -23 -20 5 -38 20 -55 46 -20 32 -30 39 -57 39 -18 0 -43 7 -56 16 -20 15
-23 22 -17 60 5 36 2 47 -16 64 -12 11 -25 20 -30 20 -14 0 -36 54 -32 80 12
78 75 111 171 89 41 -9 71 18 54 49 -17 32 -124 46 -183 23 -24 -9 -27 -7 -36
17 -13 38 -6 108 15 145 11 18 38 42 63 54 25 12 48 26 52 30 4 4 20 23 35 41
20 24 44 38 78 47 57 14 84 6 86 -28z m215 9 c16 -10 39 -33 52 -52 12 -19 29
-34 38 -34 52 0 114 -79 114 -146 0 -114 -60 -190 -156 -198 -20 -1 -39 -8
-44 -16 -9 -15 -2 -41 14 -52 22 -15 85 -7 130 17 26 14 49 25 52 25 2 0 4
-14 4 -32 0 -24 -10 -40 -41 -69 -39 -36 -41 -41 -36 -79 4 -34 2 -43 -20 -60
-52 -41 -91 -22 -107 51 -7 32 -40 44 -61 22 -22 -21 -12 -87 20 -129 l25 -33
-41 -12 c-77 -24 -74 -43 -77 404 -3 444 -5 430 66 417 21 -3 51 -14 68 -24z"/>
<path d="M353 808 c-4 -7 -12 -22 -18 -32 -11 -21 -25 -29 -70 -43 -62 -18
-38 -78 27 -69 51 7 97 40 114 82 17 41 17 39 -2 58 -19 19 -40 21 -51 4z"/>
<path d="M195 411 c-8 -27 4 -50 31 -57 32 -8 74 -64 74 -97 0 -28 34 -59 56
-50 37 14 21 102 -28 159 -53 60 -121 83 -133 45z"/>
<path d="M614 763 c-22 -37 27 -131 81 -157 44 -21 90 -26 116 -12 46 23 26
66 -30 66 -47 0 -68 16 -95 71 -23 48 -54 62 -72 32z"/>
</g>
</svg>
